<?xml version="1.0" encoding="utf-8"?>
<!-- Generator: Adobe Illustrator 21.0.0, SVG Export Plug-In . SVG Version: 6.00 Build 0)  -->
<svg version="1.1" id="Layer_1" xmlns="http://www.w3.org/2000/svg" xmlns:xlink="http://www.w3.org/1999/xlink" x="0px" y="0px"
	 width="50px" height="50px" viewBox="0 0 50 50" style="enable-background:new 0 0 50 50;" xml:space="preserve">
<style type="text/css">
	.st0{fill:#848484;}
</style>
<g>
	<path class="st0" d="M7.1,11.8c-1.2-0.7-2.8-0.3-3.5,0.9c-0.7,1.3-0.3,2.8,0.9,3.5c0.4,0.2,0.9,0.3,1.3,0.3c0.9,0,1.8-0.5,2.2-1.3
		C8.8,14.1,8.3,12.5,7.1,11.8z"/>
	<path class="st0" d="M12.7,3.6c-1.3,0.7-1.7,2.3-0.9,3.5c0.5,0.8,1.3,1.3,2.2,1.3c0.5,0,0.9-0.1,1.3-0.3c1.2-0.7,1.7-2.3,0.9-3.5
		C15.5,3.3,13.9,2.9,12.7,3.6z"/>
	<path class="st0" d="M25.1,0.3c-1.4,0-2.6,1.1-2.6,2.6s1.1,2.6,2.6,2.6c10.9,0,19.7,8.8,19.7,19.7S36,44.9,25.1,44.9
		S5.4,36,5.4,25.2c0-1.4-1.1-2.6-2.6-2.6s-2.6,1.1-2.6,2.6C0.3,38.8,11.5,50,25.1,50S50,38.8,50,25.2S38.8,0.3,25.1,0.3z"/>
</g>
</svg>
